<?xml version="1.0" encoding="utf-8"?>
<!-- Generator: Adobe Illustrator 16.0.0, SVG Export Plug-In . SVG Version: 6.00 Build 0)  -->
<svg version="1.2" baseProfile="tiny" id="Layer_1" xmlns="http://www.w3.org/2000/svg" xmlns:xlink="http://www.w3.org/1999/xlink"
	 x="0px" y="0px" width="168px" height="178px" viewBox="0 0 168 178" xml:space="preserve">
<g>
	<polygon points="84,65.115 90.7,78.691 105.682,80.868 94.841,91.435 97.4,106.356 84,99.312 70.6,106.356 73.159,91.435 
		62.318,80.868 77.3,78.691 	"/>
</g>
<g>
	<path d="M84,149c-33.781,0-61.264-27.483-61.264-61.264S50.219,26.472,84,26.472s61.264,27.483,61.264,61.264S117.781,149,84,149z
		 M84,32.472c-30.473,0-55.264,24.792-55.264,55.264S53.527,143,84,143s55.264-24.792,55.264-55.264S114.473,32.472,84,32.472z"/>
</g>
</svg>
